{"accessors":[{"bufferView":0,"componentType":5126,"count":4,"max":[1.0,0.0,1.0],"min":[-1.0,0.0,-1.0],"normalized":false,"type":"VEC3"},{"bufferView":1,"componentType":5126,"count":4,"max":[1.0,1.5259021893143654e-05,-1.5260118743753992e-05,-1.0],"min":[1.0,1.5259021893143654e-05,-1.5260118743753992e-05,-1.0],"normalized":false,"type":"VEC4"},{"bufferView":2,"componentType":5126,"count":4,"max":[-1.5260118743753992e-05,1.0,-7.192668272182345e-05],"min":[-1.5260118743753992e-05,1.0,-7.192668272182345e-05],"normalized":false,"type":"VEC3"},{"bufferView":3,"componentType":5126,"count":4,"max":[0.37499046325683594,0.49999237060546875],"min":[0.12498664855957031,0.24998855590820313],"normalized":false,"type":"VEC2"},{"bufferView":4,"componentType":5121,"count":6,"max":[3],"min":[0],"normalized":false,"type":"SCALAR"},{"bufferView":5,"componentType":5126,"count":50,"max":[1.0,0.9950000047683716,1.0],"min":[-1.0,0.0,-1.0],"normalized":false,"type":"VEC3"},{"bufferView":6,"componentType":5126,"count":50,"max":[1.0,1.0,7.367134094238281e-05,1.0],"min":[-1.0,-3.0456227250397205e-05,-3.057986032217741e-05,-1.0],"normalized":false,"type":"VEC4"},{"bufferView":7,"componentType":5126,"count":50,"max":[1.0,1.0,1.0],"min":[-1.0,-1.0,-1.0],"normalized":false,"type":"VEC3"},{"bufferView":8,"componentType":5126,"count":50,"max":[0.7499961853027344,1.0],"min":[0.37499046325683594,0.0],"normalized":false,"type":"VEC2"},{"bufferView":9,"componentType":5121,"count":84,"max":[49],"min":[0],"normalized":false,"type":"SCALAR"},{"bufferView":10,"componentType":5126,"count":22,"max":[1.0,0.9950000047683716,1.0],"min":[-1.0,0.0,-1.0],"normalized":false,"type":"VEC3"},{"bufferView":11,"componentType":5126,"count":22,"max":[2.391735506535042e-05,1.0,3.0456227250397205e-05,1.0],"min":[-1.0,-0.8935438990592957,-3.057986032217741e-05,1.0],"normalized":false,"type":"VEC4"},{"bufferView":12,"componentType":5126,"count":22,"max":[1.0,1.0,1.0],"min":[-0.8935438990592957,0.0,-1.0],"normalized":false,"type":"VEC3"},{"bufferView":13,"componentType":5126,"count":22,"max":[0.49999237060546875,0.7499961853027344],"min":[0.12498664855957031,0.0],"normalized":false,"type":"VEC2"},{"bufferView":14,"componentType":5121,"count":36,"max":[21],"min":[0],"normalized":false,"type":"SCALAR"},{"bufferView":15,"componentType":5126,"count":14,"max":[1.0,0.9950000047683716,1.0],"min":[-1.0,0.0,-1.0],"normalized":false,"type":"VEC3"},{"bufferView":16,"componentType":5126,"count":14,"max":[2.391735506535042e-05,1.0,3.0456227250397205e-05,1.0],"min":[-0.8953060507774353,-0.44545143842697144,0.0,1.0],"normalized":false,"type":"VEC4"},{"bufferView":17,"componentType":5126,"count":14,"max":[1.0,0.8953061103820801,1.0],"min":[-0.4454514980316162,0.0,-1.0],"normalized":false,"type":"VEC3"},{"bufferView":18,"componentType":5126,"count":14,"max":[0.8749980926513672,0.7499961853027344],"min":[0.49999237060546875,0.0],"normalized":false,"type":"VEC2"},{"bufferView":19,"componentType":5121,"count":18,"max":[13],"min":[0],"normalized":false,"type":"SCALAR"},{"bufferView":20,"componentType":5126,"count":4,"max":[1.0,0.0,1.0],"min":[-1.0,0.0,-1.0],"normalized":false,"type":"VEC3"},{"bufferView":21,"componentType":5126,"count":4,"max":[1.0,0.0,-1.5259021893143654e-05,1.0],"min":[1.0,0.0,-1.5259021893143654e-05,1.0],"normalized":false,"type":"VEC4"},{"bufferView":22,"componentType":5126,"count":4,"max":[0.0,1.0,-1.5259021893143654e-05],"min":[0.0,1.0,-1.5259021893143654e-05],"normalized":false,"type":"VEC3"},{"bufferView":23,"componentType":5126,"count":4,"max":[1.0,1.0],"min":[0.0,0.0],"normalized":false,"type":"VEC2"},{"bufferView":24,"componentType":5121,"count":6,"max":[3],"min":[0],"normalized":false,"type":"SCALAR"}],"asset":{"generator":"Godot Engine v4.7.2.stable.steam@ed1daf0bf001b61586d9930840f2f1394092c079","version":"2.0"},"bufferViews":[{"buffer":0,"byteLength":48,"byteStride":12,"target":34962},{"buffer":0,"byteLength":64,"byteOffset":48,"byteStride":16,"target":34962},{"buffer":0,"byteLength":48,"byteOffset":112,"byteStride":12,"target":34962},{"buffer":0,"byteLength":32,"byteOffset":160,"byteStride":8,"target":34962},{"buffer":0,"byteLength":6,"byteOffset":192,"target":34963},{"buffer":0,"byteLength":600,"byteOffset":200,"byteStride":12,"target":34962},{"buffer":0,"byteLength":800,"byteOffset":800,"byteStride":16,"target":34962},{"buffer":0,"byteLength":600,"byteOffset":1600,"byteStride":12,"target":34962},{"buffer":0,"byteLength":400,"byteOffset":2200,"byteStride":8,"target":34962},{"buffer":0,"byteLength":84,"byteOffset":2600,"target":34963},{"buffer":0,"byteLength":264,"byteOffset":2684,"byteStride":12,"target":34962},{"buffer":0,"byteLength":352,"byteOffset":2948,"byteStride":16,"target":34962},{"buffer":0,"byteLength":264,"byteOffset":3300,"byteStride":12,"target":34962},{"buffer":0,"byteLength":176,"byteOffset":3564,"byteStride":8,"target":34962},{"buffer":0,"byteLength":36,"byteOffset":3740,"target":34963},{"buffer":0,"byteLength":168,"byteOffset":3776,"byteStride":12,"target":34962},{"buffer":0,"byteLength":224,"byteOffset":3944,"byteStride":16,"target":34962},{"buffer":0,"byteLength":168,"byteOffset":4168,"byteStride":12,"target":34962},{"buffer":0,"byteLength":112,"byteOffset":4336,"byteStride":8,"target":34962},{"buffer":0,"byteLength":18,"byteOffset":4448,"target":34963},{"buffer":0,"byteLength":48,"byteOffset":4468,"byteStride":12,"target":34962},{"buffer":0,"byteLength":64,"byteOffset":4516,"byteStride":16,"target":34962},{"buffer":0,"byteLength":48,"byteOffset":4580,"byteStride":12,"target":34962},{"buffer":0,"byteLength":32,"byteOffset":4628,"byteStride":8,"target":34962},{"buffer":0,"byteLength":6,"byteOffset":4660,"target":34963}],"buffers":[{"byteLength":4666,"uri":"Ruins0.bin"}],"extensions":{"KHR_lights_punctual":{"lights":[{"type":"directional"}]}},"extensionsUsed":["GODOT_single_root","KHR_lights_punctual"],"images":[{"name":"Color Grid","uri":"textures%2FColor%20Grid.png"}],"materials":[{"name":"PHolderMaterial","pbrMetallicRoughness":{"baseColorFactor":[1.0,1.0,1.0,1.0],"baseColorTexture":{"index":0},"metallicFactor":0.0,"roughnessFactor":1.0}},{}],"meshes":[{"name":"Ground","primitives":[{"attributes":{"NORMAL":2,"POSITION":0,"TANGENT":1,"TEXCOORD_0":3},"indices":4,"material":0,"mode":4}]},{"name":"Ground2","primitives":[{"attributes":{"NORMAL":2,"POSITION":0,"TANGENT":1,"TEXCOORD_0":3},"indices":4,"material":0,"mode":4}]},{"name":"Ground3","primitives":[{"attributes":{"NORMAL":2,"POSITION":0,"TANGENT":1,"TEXCOORD_0":3},"indices":4,"material":0,"mode":4}]},{"name":"Ground4","primitives":[{"attributes":{"NORMAL":2,"POSITION":0,"TANGENT":1,"TEXCOORD_0":3},"indices":4,"material":0,"mode":4}]},{"name":"Ground5","primitives":[{"attributes":{"NORMAL":2,"POSITION":0,"TANGENT":1,"TEXCOORD_0":3},"indices":4,"material":0,"mode":4}]},{"name":"Ground6","primitives":[{"attributes":{"NORMAL":2,"POSITION":0,"TANGENT":1,"TEXCOORD_0":3},"indices":4,"material":0,"mode":4}]},{"name":"Ground7","primitives":[{"attributes":{"NORMAL":2,"POSITION":0,"TANGENT":1,"TEXCOORD_0":3},"indices":4,"material":0,"mode":4}]},{"name":"Wall","primitives":[{"attributes":{"NORMAL":7,"POSITION":5,"TANGENT":6,"TEXCOORD_0":8},"indices":9,"material":0,"mode":4}]},{"name":"Ground8","primitives":[{"attributes":{"NORMAL":2,"POSITION":0,"TANGENT":1,"TEXCOORD_0":3},"indices":4,"material":0,"mode":4}]},{"name":"Wall2","primitives":[{"attributes":{"NORMAL":7,"POSITION":5,"TANGENT":6,"TEXCOORD_0":8},"indices":9,"material":0,"mode":4}]},{"name":"Ground9","primitives":[{"attributes":{"NORMAL":2,"POSITION":0,"TANGENT":1,"TEXCOORD_0":3},"indices":4,"material":0,"mode":4}]},{"name":"Ground10","primitives":[{"attributes":{"NORMAL":2,"POSITION":0,"TANGENT":1,"TEXCOORD_0":3},"indices":4,"material":0,"mode":4}]},{"name":"Ground11","primitives":[{"attributes":{"NORMAL":2,"POSITION":0,"TANGENT":1,"TEXCOORD_0":3},"indices":4,"material":0,"mode":4}]},{"name":"Ground12","primitives":[{"attributes":{"NORMAL":2,"POSITION":0,"TANGENT":1,"TEXCOORD_0":3},"indices":4,"material":0,"mode":4}]},{"name":"Cliff","primitives":[{"attributes":{"NORMAL":12,"POSITION":10,"TANGENT":11,"TEXCOORD_0":13},"indices":14,"material":0,"mode":4}]},{"name":"Cliff2","primitives":[{"attributes":{"NORMAL":12,"POSITION":10,"TANGENT":11,"TEXCOORD_0":13},"indices":14,"material":0,"mode":4}]},{"name":"Cliff3","primitives":[{"attributes":{"NORMAL":12,"POSITION":10,"TANGENT":11,"TEXCOORD_0":13},"indices":14,"material":0,"mode":4}]},{"name":"Cliff4","primitives":[{"attributes":{"NORMAL":12,"POSITION":10,"TANGENT":11,"TEXCOORD_0":13},"indices":14,"material":0,"mode":4}]},{"name":"Cliff5","primitives":[{"attributes":{"NORMAL":12,"POSITION":10,"TANGENT":11,"TEXCOORD_0":13},"indices":14,"material":0,"mode":4}]},{"name":"Ground13","primitives":[{"attributes":{"NORMAL":2,"POSITION":0,"TANGENT":1,"TEXCOORD_0":3},"indices":4,"material":0,"mode":4}]},{"name":"Ground14","primitives":[{"attributes":{"NORMAL":2,"POSITION":0,"TANGENT":1,"TEXCOORD_0":3},"indices":4,"material":0,"mode":4}]},{"name":"Wall3","primitives":[{"attributes":{"NORMAL":7,"POSITION":5,"TANGENT":6,"TEXCOORD_0":8},"indices":9,"material":0,"mode":4}]},{"name":"Wall4","primitives":[{"attributes":{"NORMAL":7,"POSITION":5,"TANGENT":6,"TEXCOORD_0":8},"indices":9,"material":0,"mode":4}]},{"name":"Wall5","primitives":[{"attributes":{"NORMAL":7,"POSITION":5,"TANGENT":6,"TEXCOORD_0":8},"indices":9,"material":0,"mode":4}]},{"name":"Wall6","primitives":[{"attributes":{"NORMAL":7,"POSITION":5,"TANGENT":6,"TEXCOORD_0":8},"indices":9,"material":0,"mode":4}]},{"name":"Ground15","primitives":[{"attributes":{"NORMAL":2,"POSITION":0,"TANGENT":1,"TEXCOORD_0":3},"indices":4,"material":0,"mode":4}]},{"name":"Stairs","primitives":[{"attributes":{"NORMAL":17,"POSITION":15,"TANGENT":16,"TEXCOORD_0":18},"indices":19,"material":0,"mode":4}]},{"name":"Stairs2","primitives":[{"attributes":{"NORMAL":17,"POSITION":15,"TANGENT":16,"TEXCOORD_0":18},"indices":19,"material":0,"mode":4}]},{"name":"Ground16","primitives":[{"attributes":{"NORMAL":2,"POSITION":0,"TANGENT":1,"TEXCOORD_0":3},"indices":4,"material":0,"mode":4}]},{"name":"Ground17","primitives":[{"attributes":{"NORMAL":2,"POSITION":0,"TANGENT":1,"TEXCOORD_0":3},"indices":4,"material":0,"mode":4}]},{"name":"Stairs3","primitives":[{"attributes":{"NORMAL":17,"POSITION":15,"TANGENT":16,"TEXCOORD_0":18},"indices":19,"material":0,"mode":4}]},{"name":"Ground18","primitives":[{"attributes":{"NORMAL":2,"POSITION":0,"TANGENT":1,"TEXCOORD_0":3},"indices":4,"material":0,"mode":4}]},{"name":"Wall7","primitives":[{"attributes":{"NORMAL":7,"POSITION":5,"TANGENT":6,"TEXCOORD_0":8},"indices":9,"material":0,"mode":4}]},{"name":"Wall8","primitives":[{"attributes":{"NORMAL":7,"POSITION":5,"TANGENT":6,"TEXCOORD_0":8},"indices":9,"material":0,"mode":4}]},{"name":"Ground19","primitives":[{"attributes":{"NORMAL":2,"POSITION":0,"TANGENT":1,"TEXCOORD_0":3},"indices":4,"material":0,"mode":4}]},{"name":"Wall9","primitives":[{"attributes":{"NORMAL":7,"POSITION":5,"TANGENT":6,"TEXCOORD_0":8},"indices":9,"material":0,"mode":4}]},{"name":"Ground20","primitives":[{"attributes":{"NORMAL":2,"POSITION":0,"TANGENT":1,"TEXCOORD_0":3},"indices":4,"material":0,"mode":4}]},{"name":"Ground21","primitives":[{"attributes":{"NORMAL":2,"POSITION":0,"TANGENT":1,"TEXCOORD_0":3},"indices":4,"material":0,"mode":4}]},{"name":"Ground22","primitives":[{"attributes":{"NORMAL":2,"POSITION":0,"TANGENT":1,"TEXCOORD_0":3},"indices":4,"material":0,"mode":4}]},{"name":"Wall10","primitives":[{"attributes":{"NORMAL":7,"POSITION":5,"TANGENT":6,"TEXCOORD_0":8},"indices":9,"material":0,"mode":4}]},{"name":"Wall11","primitives":[{"attributes":{"NORMAL":7,"POSITION":5,"TANGENT":6,"TEXCOORD_0":8},"indices":9,"material":0,"mode":4}]},{"name":"Wall12","primitives":[{"attributes":{"NORMAL":7,"POSITION":5,"TANGENT":6,"TEXCOORD_0":8},"indices":9,"material":0,"mode":4}]},{"name":"Wall13","primitives":[{"attributes":{"NORMAL":7,"POSITION":5,"TANGENT":6,"TEXCOORD_0":8},"indices":9,"material":0,"mode":4}]},{"name":"Wall14","primitives":[{"attributes":{"NORMAL":7,"POSITION":5,"TANGENT":6,"TEXCOORD_0":8},"indices":9,"material":0,"mode":4}]},{"name":"Ground23","primitives":[{"attributes":{"NORMAL":2,"POSITION":0,"TANGENT":1,"TEXCOORD_0":3},"indices":4,"material":0,"mode":4}]},{"name":"Wall15","primitives":[{"attributes":{"NORMAL":7,"POSITION":5,"TANGENT":6,"TEXCOORD_0":8},"indices":9,"material":0,"mode":4}]},{"name":"Ground24","primitives":[{"attributes":{"NORMAL":2,"POSITION":0,"TANGENT":1,"TEXCOORD_0":3},"indices":4,"material":0,"mode":4}]},{"name":"Wall16","primitives":[{"attributes":{"NORMAL":7,"POSITION":5,"TANGENT":6,"TEXCOORD_0":8},"indices":9,"material":0,"mode":4}]},{"name":"Wall17","primitives":[{"attributes":{"NORMAL":7,"POSITION":5,"TANGENT":6,"TEXCOORD_0":8},"indices":9,"material":0,"mode":4}]},{"name":"Ground25","primitives":[{"attributes":{"NORMAL":2,"POSITION":0,"TANGENT":1,"TEXCOORD_0":3},"indices":4,"material":0,"mode":4}]},{"name":"Ground26","primitives":[{"attributes":{"NORMAL":2,"POSITION":0,"TANGENT":1,"TEXCOORD_0":3},"indices":4,"material":0,"mode":4}]},{"name":"Wall18","primitives":[{"attributes":{"NORMAL":7,"POSITION":5,"TANGENT":6,"TEXCOORD_0":8},"indices":9,"material":0,"mode":4}]},{"name":"Ground27","primitives":[{"attributes":{"NORMAL":2,"POSITION":0,"TANGENT":1,"TEXCOORD_0":3},"indices":4,"material":0,"mode":4}]},{"name":"Ground28","primitives":[{"attributes":{"NORMAL":2,"POSITION":0,"TANGENT":1,"TEXCOORD_0":3},"indices":4,"material":0,"mode":4}]},{"name":"Ground29","primitives":[{"attributes":{"NORMAL":2,"POSITION":0,"TANGENT":1,"TEXCOORD_0":3},"indices":4,"material":0,"mode":4}]},{"name":"Wall19","primitives":[{"attributes":{"NORMAL":7,"POSITION":5,"TANGENT":6,"TEXCOORD_0":8},"indices":9,"material":0,"mode":4}]},{"name":"Wall20","primitives":[{"attributes":{"NORMAL":7,"POSITION":5,"TANGENT":6,"TEXCOORD_0":8},"indices":9,"material":0,"mode":4}]},{"name":"Ground30","primitives":[{"attributes":{"NORMAL":2,"POSITION":0,"TANGENT":1,"TEXCOORD_0":3},"indices":4,"material":0,"mode":4}]},{"name":"Ground31","primitives":[{"attributes":{"NORMAL":2,"POSITION":0,"TANGENT":1,"TEXCOORD_0":3},"indices":4,"material":0,"mode":4}]},{"name":"Ground32","primitives":[{"attributes":{"NORMAL":2,"POSITION":0,"TANGENT":1,"TEXCOORD_0":3},"indices":4,"material":0,"mode":4}]},{"name":"Ground33","primitives":[{"attributes":{"NORMAL":2,"POSITION":0,"TANGENT":1,"TEXCOORD_0":3},"indices":4,"material":0,"mode":4}]},{"name":"Wall21","primitives":[{"attributes":{"NORMAL":7,"POSITION":5,"TANGENT":6,"TEXCOORD_0":8},"indices":9,"material":0,"mode":4}]},{"name":"Ground34","primitives":[{"attributes":{"NORMAL":2,"POSITION":0,"TANGENT":1,"TEXCOORD_0":3},"indices":4,"material":0,"mode":4}]},{"name":"Ground35","primitives":[{"attributes":{"NORMAL":2,"POSITION":0,"TANGENT":1,"TEXCOORD_0":3},"indices":4,"material":0,"mode":4}]},{"name":"Ground36","primitives":[{"attributes":{"NORMAL":2,"POSITION":0,"TANGENT":1,"TEXCOORD_0":3},"indices":4,"material":0,"mode":4}]},{"name":"Ground37","primitives":[{"attributes":{"NORMAL":2,"POSITION":0,"TANGENT":1,"TEXCOORD_0":3},"indices":4,"material":0,"mode":4}]},{"name":"Ground38","primitives":[{"attributes":{"NORMAL":2,"POSITION":0,"TANGENT":1,"TEXCOORD_0":3},"indices":4,"material":0,"mode":4}]},{"name":"Wall22","primitives":[{"attributes":{"NORMAL":7,"POSITION":5,"TANGENT":6,"TEXCOORD_0":8},"indices":9,"material":0,"mode":4}]},{"name":"Wall23","primitives":[{"attributes":{"NORMAL":7,"POSITION":5,"TANGENT":6,"TEXCOORD_0":8},"indices":9,"material":0,"mode":4}]},{"name":"Ground39","primitives":[{"attributes":{"NORMAL":2,"POSITION":0,"TANGENT":1,"TEXCOORD_0":3},"indices":4,"material":0,"mode":4}]},{"name":"Ground40","primitives":[{"attributes":{"NORMAL":2,"POSITION":0,"TANGENT":1,"TEXCOORD_0":3},"indices":4,"material":0,"mode":4}]},{"name":"Wall24","primitives":[{"attributes":{"NORMAL":7,"POSITION":5,"TANGENT":6,"TEXCOORD_0":8},"indices":9,"material":0,"mode":4}]},{"name":"Ground41","primitives":[{"attributes":{"NORMAL":2,"POSITION":0,"TANGENT":1,"TEXCOORD_0":3},"indices":4,"material":0,"mode":4}]},{"name":"Wall25","primitives":[{"attributes":{"NORMAL":7,"POSITION":5,"TANGENT":6,"TEXCOORD_0":8},"indices":9,"material":0,"mode":4}]},{"name":"Ground42","primitives":[{"attributes":{"NORMAL":2,"POSITION":0,"TANGENT":1,"TEXCOORD_0":3},"indices":4,"material":0,"mode":4}]},{"name":"Ground43","primitives":[{"attributes":{"NORMAL":2,"POSITION":0,"TANGENT":1,"TEXCOORD_0":3},"indices":4,"material":0,"mode":4}]},{"name":"Ground44","primitives":[{"attributes":{"NORMAL":2,"POSITION":0,"TANGENT":1,"TEXCOORD_0":3},"indices":4,"material":0,"mode":4}]},{"name":"Ground45","primitives":[{"attributes":{"NORMAL":2,"POSITION":0,"TANGENT":1,"TEXCOORD_0":3},"indices":4,"material":0,"mode":4}]},{"name":"Wall26","primitives":[{"attributes":{"NORMAL":7,"POSITION":5,"TANGENT":6,"TEXCOORD_0":8},"indices":9,"material":0,"mode":4}]},{"name":"Ground46","primitives":[{"attributes":{"NORMAL":2,"POSITION":0,"TANGENT":1,"TEXCOORD_0":3},"indices":4,"material":0,"mode":4}]},{"name":"Ground47","primitives":[{"attributes":{"NORMAL":2,"POSITION":0,"TANGENT":1,"TEXCOORD_0":3},"indices":4,"material":0,"mode":4}]},{"name":"Ground48","primitives":[{"attributes":{"NORMAL":2,"POSITION":0,"TANGENT":1,"TEXCOORD_0":3},"indices":4,"material":0,"mode":4}]},{"name":"Ground49","primitives":[{"attributes":{"NORMAL":2,"POSITION":0,"TANGENT":1,"TEXCOORD_0":3},"indices":4,"material":0,"mode":4}]},{"name":"Ground50","primitives":[{"attributes":{"NORMAL":2,"POSITION":0,"TANGENT":1,"TEXCOORD_0":3},"indices":4,"material":0,"mode":4}]},{"name":"Wall27","primitives":[{"attributes":{"NORMAL":7,"POSITION":5,"TANGENT":6,"TEXCOORD_0":8},"indices":9,"material":0,"mode":4}]},{"name":"Ground51","primitives":[{"attributes":{"NORMAL":2,"POSITION":0,"TANGENT":1,"TEXCOORD_0":3},"indices":4,"material":0,"mode":4}]},{"name":"Ground52","primitives":[{"attributes":{"NORMAL":2,"POSITION":0,"TANGENT":1,"TEXCOORD_0":3},"indices":4,"material":0,"mode":4}]},{"name":"Ground53","primitives":[{"attributes":{"NORMAL":2,"POSITION":0,"TANGENT":1,"TEXCOORD_0":3},"indices":4,"material":0,"mode":4}]},{"name":"Wall28","primitives":[{"attributes":{"NORMAL":7,"POSITION":5,"TANGENT":6,"TEXCOORD_0":8},"indices":9,"material":0,"mode":4}]},{"name":"Ground54","primitives":[{"attributes":{"NORMAL":2,"POSITION":0,"TANGENT":1,"TEXCOORD_0":3},"indices":4,"material":0,"mode":4}]},{"name":"Ground55","primitives":[{"attributes":{"NORMAL":2,"POSITION":0,"TANGENT":1,"TEXCOORD_0":3},"indices":4,"material":0,"mode":4}]},{"name":"Wall29","primitives":[{"attributes":{"NORMAL":7,"POSITION":5,"TANGENT":6,"TEXCOORD_0":8},"indices":9,"material":0,"mode":4}]},{"name":"Wall30","primitives":[{"attributes":{"NORMAL":7,"POSITION":5,"TANGENT":6,"TEXCOORD_0":8},"indices":9,"material":0,"mode":4}]},{"name":"Wall31","primitives":[{"attributes":{"NORMAL":7,"POSITION":5,"TANGENT":6,"TEXCOORD_0":8},"indices":9,"material":0,"mode":4}]},{"name":"Ground56","primitives":[{"attributes":{"NORMAL":2,"POSITION":0,"TANGENT":1,"TEXCOORD_0":3},"indices":4,"material":0,"mode":4}]},{"name":"Ground57","primitives":[{"attributes":{"NORMAL":2,"POSITION":0,"TANGENT":1,"TEXCOORD_0":3},"indices":4,"material":0,"mode":4}]},{"name":"Wall32","primitives":[{"attributes":{"NORMAL":7,"POSITION":5,"TANGENT":6,"TEXCOORD_0":8},"indices":9,"material":0,"mode":4}]},{"name":"Ground58","primitives":[{"attributes":{"NORMAL":2,"POSITION":0,"TANGENT":1,"TEXCOORD_0":3},"indices":4,"material":0,"mode":4}]},{"name":"Wall33","primitives":[{"attributes":{"NORMAL":7,"POSITION":5,"TANGENT":6,"TEXCOORD_0":8},"indices":9,"material":0,"mode":4}]},{"name":"Wall34","primitives":[{"attributes":{"NORMAL":7,"POSITION":5,"TANGENT":6,"TEXCOORD_0":8},"indices":9,"material":0,"mode":4}]},{"name":"Ground59","primitives":[{"attributes":{"NORMAL":2,"POSITION":0,"TANGENT":1,"TEXCOORD_0":3},"indices":4,"material":0,"mode":4}]},{"name":"Cliff6","primitives":[{"attributes":{"NORMAL":12,"POSITION":10,"TANGENT":11,"TEXCOORD_0":13},"indices":14,"material":0,"mode":4}]},{"name":"Wall35","primitives":[{"attributes":{"NORMAL":7,"POSITION":5,"TANGENT":6,"TEXCOORD_0":8},"indices":9,"material":0,"mode":4}]},{"name":"Wall36","primitives":[{"attributes":{"NORMAL":7,"POSITION":5,"TANGENT":6,"TEXCOORD_0":8},"indices":9,"material":0,"mode":4}]},{"name":"Wall37","primitives":[{"attributes":{"NORMAL":7,"POSITION":5,"TANGENT":6,"TEXCOORD_0":8},"indices":9,"material":0,"mode":4}]},{"name":"Wall38","primitives":[{"attributes":{"NORMAL":7,"POSITION":5,"TANGENT":6,"TEXCOORD_0":8},"indices":9,"material":0,"mode":4}]},{"name":"Wall39","primitives":[{"attributes":{"NORMAL":7,"POSITION":5,"TANGENT":6,"TEXCOORD_0":8},"indices":9,"material":0,"mode":4}]},{"name":"Wall40","primitives":[{"attributes":{"NORMAL":7,"POSITION":5,"TANGENT":6,"TEXCOORD_0":8},"indices":9,"material":0,"mode":4}]},{"name":"Wall41","primitives":[{"attributes":{"NORMAL":7,"POSITION":5,"TANGENT":6,"TEXCOORD_0":8},"indices":9,"material":0,"mode":4}]},{"name":"Wall42","primitives":[{"attributes":{"NORMAL":7,"POSITION":5,"TANGENT":6,"TEXCOORD_0":8},"indices":9,"material":0,"mode":4}]},{"name":"Cliff7","primitives":[{"attributes":{"NORMAL":12,"POSITION":10,"TANGENT":11,"TEXCOORD_0":13},"indices":14,"material":0,"mode":4}]},{"name":"Cliff8","primitives":[{"attributes":{"NORMAL":12,"POSITION":10,"TANGENT":11,"TEXCOORD_0":13},"indices":14,"material":0,"mode":4}]},{"name":"Cliff9","primitives":[{"attributes":{"NORMAL":12,"POSITION":10,"TANGENT":11,"TEXCOORD_0":13},"indices":14,"material":0,"mode":4}]},{"name":"Cliff10","primitives":[{"attributes":{"NORMAL":12,"POSITION":10,"TANGENT":11,"TEXCOORD_0":13},"indices":14,"material":0,"mode":4}]},{"name":"Cliff11","primitives":[{"attributes":{"NORMAL":12,"POSITION":10,"TANGENT":11,"TEXCOORD_0":13},"indices":14,"material":0,"mode":4}]},{"name":"Cliff12","primitives":[{"attributes":{"NORMAL":12,"POSITION":10,"TANGENT":11,"TEXCOORD_0":13},"indices":14,"material":0,"mode":4}]},{"name":"Wall43","primitives":[{"attributes":{"NORMAL":7,"POSITION":5,"TANGENT":6,"TEXCOORD_0":8},"indices":9,"material":0,"mode":4}]},{"name":"Wall44","primitives":[{"attributes":{"NORMAL":7,"POSITION":5,"TANGENT":6,"TEXCOORD_0":8},"indices":9,"material":0,"mode":4}]},{"name":"Wall45","primitives":[{"attributes":{"NORMAL":7,"POSITION":5,"TANGENT":6,"TEXCOORD_0":8},"indices":9,"material":0,"mode":4}]},{"name":"Wall46","primitives":[{"attributes":{"NORMAL":7,"POSITION":5,"TANGENT":6,"TEXCOORD_0":8},"indices":9,"material":0,"mode":4}]},{"name":"Wall47","primitives":[{"attributes":{"NORMAL":7,"POSITION":5,"TANGENT":6,"TEXCOORD_0":8},"indices":9,"material":0,"mode":4}]},{"name":"Wall48","primitives":[{"attributes":{"NORMAL":7,"POSITION":5,"TANGENT":6,"TEXCOORD_0":8},"indices":9,"material":0,"mode":4}]},{"name":"Wall49","primitives":[{"attributes":{"NORMAL":7,"POSITION":5,"TANGENT":6,"TEXCOORD_0":8},"indices":9,"material":0,"mode":4}]},{"name":"Wall50","primitives":[{"attributes":{"NORMAL":7,"POSITION":5,"TANGENT":6,"TEXCOORD_0":8},"indices":9,"material":0,"mode":4}]},{"name":"Wall51","primitives":[{"attributes":{"NORMAL":7,"POSITION":5,"TANGENT":6,"TEXCOORD_0":8},"indices":9,"material":0,"mode":4}]},{"name":"Cliff13","primitives":[{"attributes":{"NORMAL":12,"POSITION":10,"TANGENT":11,"TEXCOORD_0":13},"indices":14,"material":0,"mode":4}]},{"name":"Cliff14","primitives":[{"attributes":{"NORMAL":12,"POSITION":10,"TANGENT":11,"TEXCOORD_0":13},"indices":14,"material":0,"mode":4}]},{"name":"Cliff15","primitives":[{"attributes":{"NORMAL":12,"POSITION":10,"TANGENT":11,"TEXCOORD_0":13},"indices":14,"material":0,"mode":4}]},{"name":"Ground60","primitives":[{"attributes":{"NORMAL":2,"POSITION":0,"TANGENT":1,"TEXCOORD_0":3},"indices":4,"material":0,"mode":4}]},{"name":"Ground61","primitives":[{"attributes":{"NORMAL":2,"POSITION":0,"TANGENT":1,"TEXCOORD_0":3},"indices":4,"material":0,"mode":4}]},{"name":"Ground62","primitives":[{"attributes":{"NORMAL":2,"POSITION":0,"TANGENT":1,"TEXCOORD_0":3},"indices":4,"material":0,"mode":4}]},{"name":"Wall52","primitives":[{"attributes":{"NORMAL":7,"POSITION":5,"TANGENT":6,"TEXCOORD_0":8},"indices":9,"material":0,"mode":4}]},{"name":"Wall53","primitives":[{"attributes":{"NORMAL":7,"POSITION":5,"TANGENT":6,"TEXCOORD_0":8},"indices":9,"material":0,"mode":4}]},{"name":"Wall54","primitives":[{"attributes":{"NORMAL":7,"POSITION":5,"TANGENT":6,"TEXCOORD_0":8},"indices":9,"material":0,"mode":4}]},{"name":"Wall55","primitives":[{"attributes":{"NORMAL":7,"POSITION":5,"TANGENT":6,"TEXCOORD_0":8},"indices":9,"material":0,"mode":4}]},{"name":"Wall56","primitives":[{"attributes":{"NORMAL":7,"POSITION":5,"TANGENT":6,"TEXCOORD_0":8},"indices":9,"material":0,"mode":4}]},{"name":"Wall57","primitives":[{"attributes":{"NORMAL":7,"POSITION":5,"TANGENT":6,"TEXCOORD_0":8},"indices":9,"material":0,"mode":4}]},{"name":"Wall58","primitives":[{"attributes":{"NORMAL":7,"POSITION":5,"TANGENT":6,"TEXCOORD_0":8},"indices":9,"material":0,"mode":4}]},{"name":"Wall59","primitives":[{"attributes":{"NORMAL":7,"POSITION":5,"TANGENT":6,"TEXCOORD_0":8},"indices":9,"material":0,"mode":4}]},{"name":"Wall60","primitives":[{"attributes":{"NORMAL":7,"POSITION":5,"TANGENT":6,"TEXCOORD_0":8},"indices":9,"material":0,"mode":4}]},{"name":"Wall61","primitives":[{"attributes":{"NORMAL":7,"POSITION":5,"TANGENT":6,"TEXCOORD_0":8},"indices":9,"material":0,"mode":4}]},{"name":"Wall62","primitives":[{"attributes":{"NORMAL":7,"POSITION":5,"TANGENT":6,"TEXCOORD_0":8},"indices":9,"material":0,"mode":4}]},{"name":"Wall63","primitives":[{"attributes":{"NORMAL":7,"POSITION":5,"TANGENT":6,"TEXCOORD_0":8},"indices":9,"material":0,"mode":4}]},{"name":"Wall64","primitives":[{"attributes":{"NORMAL":7,"POSITION":5,"TANGENT":6,"TEXCOORD_0":8},"indices":9,"material":0,"mode":4}]},{"name":"Wall65","primitives":[{"attributes":{"NORMAL":7,"POSITION":5,"TANGENT":6,"TEXCOORD_0":8},"indices":9,"material":0,"mode":4}]},{"name":"Wall66","primitives":[{"attributes":{"NORMAL":7,"POSITION":5,"TANGENT":6,"TEXCOORD_0":8},"indices":9,"material":0,"mode":4}]},{"name":"Wall67","primitives":[{"attributes":{"NORMAL":7,"POSITION":5,"TANGENT":6,"TEXCOORD_0":8},"indices":9,"material":0,"mode":4}]},{"name":"Wall68","primitives":[{"attributes":{"NORMAL":7,"POSITION":5,"TANGENT":6,"TEXCOORD_0":8},"indices":9,"material":0,"mode":4}]},{"name":"Wall69","primitives":[{"attributes":{"NORMAL":7,"POSITION":5,"TANGENT":6,"TEXCOORD_0":8},"indices":9,"material":0,"mode":4}]},{"name":"Wall70","primitives":[{"attributes":{"NORMAL":7,"POSITION":5,"TANGENT":6,"TEXCOORD_0":8},"indices":9,"material":0,"mode":4}]},{"name":"Wall71","primitives":[{"attributes":{"NORMAL":7,"POSITION":5,"TANGENT":6,"TEXCOORD_0":8},"indices":9,"material":0,"mode":4}]},{"name":"Wall72","primitives":[{"attributes":{"NORMAL":7,"POSITION":5,"TANGENT":6,"TEXCOORD_0":8},"indices":9,"material":0,"mode":4}]},{"name":"Wall73","primitives":[{"attributes":{"NORMAL":7,"POSITION":5,"TANGENT":6,"TEXCOORD_0":8},"indices":9,"material":0,"mode":4}]},{"name":"Ground63","primitives":[{"attributes":{"NORMAL":2,"POSITION":0,"TANGENT":1,"TEXCOORD_0":3},"indices":4,"material":0,"mode":4}]},{"name":"Ground64","primitives":[{"attributes":{"NORMAL":2,"POSITION":0,"TANGENT":1,"TEXCOORD_0":3},"indices":4,"material":0,"mode":4}]},{"name":"Ground65","primitives":[{"attributes":{"NORMAL":2,"POSITION":0,"TANGENT":1,"TEXCOORD_0":3},"indices":4,"material":0,"mode":4}]},{"name":"Ground66","primitives":[{"attributes":{"NORMAL":2,"POSITION":0,"TANGENT":1,"TEXCOORD_0":3},"indices":4,"material":0,"mode":4}]},{"name":"Ground67","primitives":[{"attributes":{"NORMAL":2,"POSITION":0,"TANGENT":1,"TEXCOORD_0":3},"indices":4,"material":0,"mode":4}]},{"name":"Ground68","primitives":[{"attributes":{"NORMAL":2,"POSITION":0,"TANGENT":1,"TEXCOORD_0":3},"indices":4,"material":0,"mode":4}]},{"name":"Wall74","primitives":[{"attributes":{"NORMAL":7,"POSITION":5,"TANGENT":6,"TEXCOORD_0":8},"indices":9,"material":0,"mode":4}]},{"name":"Wall75","primitives":[{"attributes":{"NORMAL":7,"POSITION":5,"TANGENT":6,"TEXCOORD_0":8},"indices":9,"material":0,"mode":4}]},{"name":"Ground69","primitives":[{"attributes":{"NORMAL":2,"POSITION":0,"TANGENT":1,"TEXCOORD_0":3},"indices":4,"material":0,"mode":4}]},{"name":"Wall76","primitives":[{"attributes":{"NORMAL":7,"POSITION":5,"TANGENT":6,"TEXCOORD_0":8},"indices":9,"material":0,"mode":4}]},{"name":"Wall77","primitives":[{"attributes":{"NORMAL":7,"POSITION":5,"TANGENT":6,"TEXCOORD_0":8},"indices":9,"material":0,"mode":4}]},{"name":"Wall78","primitives":[{"attributes":{"NORMAL":7,"POSITION":5,"TANGENT":6,"TEXCOORD_0":8},"indices":9,"material":0,"mode":4}]},{"name":"Wall79","primitives":[{"attributes":{"NORMAL":7,"POSITION":5,"TANGENT":6,"TEXCOORD_0":8},"indices":9,"material":0,"mode":4}]},{"name":"Wall80","primitives":[{"attributes":{"NORMAL":7,"POSITION":5,"TANGENT":6,"TEXCOORD_0":8},"indices":9,"material":0,"mode":4}]},{"name":"Wall81","primitives":[{"attributes":{"NORMAL":7,"POSITION":5,"TANGENT":6,"TEXCOORD_0":8},"indices":9,"material":0,"mode":4}]},{"name":"Wall82","primitives":[{"attributes":{"NORMAL":7,"POSITION":5,"TANGENT":6,"TEXCOORD_0":8},"indices":9,"material":0,"mode":4}]},{"name":"Wall83","primitives":[{"attributes":{"NORMAL":7,"POSITION":5,"TANGENT":6,"TEXCOORD_0":8},"indices":9,"material":0,"mode":4}]},{"name":"Ground70","primitives":[{"attributes":{"NORMAL":2,"POSITION":0,"TANGENT":1,"TEXCOORD_0":3},"indices":4,"material":0,"mode":4}]},{"name":"Wall84","primitives":[{"attributes":{"NORMAL":7,"POSITION":5,"TANGENT":6,"TEXCOORD_0":8},"indices":9,"material":0,"mode":4}]},{"name":"Wall85","primitives":[{"attributes":{"NORMAL":7,"POSITION":5,"TANGENT":6,"TEXCOORD_0":8},"indices":9,"material":0,"mode":4}]},{"name":"Wall86","primitives":[{"attributes":{"NORMAL":7,"POSITION":5,"TANGENT":6,"TEXCOORD_0":8},"indices":9,"material":0,"mode":4}]},{"name":"Wall87","primitives":[{"attributes":{"NORMAL":7,"POSITION":5,"TANGENT":6,"TEXCOORD_0":8},"indices":9,"material":0,"mode":4}]},{"name":"Ground71","primitives":[{"attributes":{"NORMAL":2,"POSITION":0,"TANGENT":1,"TEXCOORD_0":3},"indices":4,"material":0,"mode":4}]},{"name":"Ground72","primitives":[{"attributes":{"NORMAL":2,"POSITION":0,"TANGENT":1,"TEXCOORD_0":3},"indices":4,"material":0,"mode":4}]},{"name":"Wall88","primitives":[{"attributes":{"NORMAL":7,"POSITION":5,"TANGENT":6,"TEXCOORD_0":8},"indices":9,"material":0,"mode":4}]},{"name":"Wall89","primitives":[{"attributes":{"NORMAL":7,"POSITION":5,"TANGENT":6,"TEXCOORD_0":8},"indices":9,"material":0,"mode":4}]},{"name":"Ground73","primitives":[{"attributes":{"NORMAL":2,"POSITION":0,"TANGENT":1,"TEXCOORD_0":3},"indices":4,"material":0,"mode":4}]},{"name":"Ground74","primitives":[{"attributes":{"NORMAL":2,"POSITION":0,"TANGENT":1,"TEXCOORD_0":3},"indices":4,"material":0,"mode":4}]},{"name":"Ground75","primitives":[{"attributes":{"NORMAL":2,"POSITION":0,"TANGENT":1,"TEXCOORD_0":3},"indices":4,"material":0,"mode":4}]},{"name":"Ground76","primitives":[{"attributes":{"NORMAL":2,"POSITION":0,"TANGENT":1,"TEXCOORD_0":3},"indices":4,"material":0,"mode":4}]},{"name":"Ground77","primitives":[{"attributes":{"NORMAL":2,"POSITION":0,"TANGENT":1,"TEXCOORD_0":3},"indices":4,"material":0,"mode":4}]},{"name":"Ground78","primitives":[{"attributes":{"NORMAL":2,"POSITION":0,"TANGENT":1,"TEXCOORD_0":3},"indices":4,"material":0,"mode":4}]},{"name":"Ground79","primitives":[{"attributes":{"NORMAL":2,"POSITION":0,"TANGENT":1,"TEXCOORD_0":3},"indices":4,"material":0,"mode":4}]},{"name":"Ground80","primitives":[{"attributes":{"NORMAL":2,"POSITION":0,"TANGENT":1,"TEXCOORD_0":3},"indices":4,"material":0,"mode":4}]},{"name":"Ground81","primitives":[{"attributes":{"NORMAL":2,"POSITION":0,"TANGENT":1,"TEXCOORD_0":3},"indices":4,"material":0,"mode":4}]},{"name":"Ground82","primitives":[{"attributes":{"NORMAL":2,"POSITION":0,"TANGENT":1,"TEXCOORD_0":3},"indices":4,"material":0,"mode":4}]},{"name":"Ground83","primitives":[{"attributes":{"NORMAL":2,"POSITION":0,"TANGENT":1,"TEXCOORD_0":3},"indices":4,"material":0,"mode":4}]},{"name":"Ground84","primitives":[{"attributes":{"NORMAL":2,"POSITION":0,"TANGENT":1,"TEXCOORD_0":3},"indices":4,"material":0,"mode":4}]},{"name":"Ground85","primitives":[{"attributes":{"NORMAL":2,"POSITION":0,"TANGENT":1,"TEXCOORD_0":3},"indices":4,"material":0,"mode":4}]},{"name":"Ground86","primitives":[{"attributes":{"NORMAL":2,"POSITION":0,"TANGENT":1,"TEXCOORD_0":3},"indices":4,"material":0,"mode":4}]},{"name":"Wall90","primitives":[{"attributes":{"NORMAL":7,"POSITION":5,"TANGENT":6,"TEXCOORD_0":8},"indices":9,"material":0,"mode":4}]},{"name":"Wall91","primitives":[{"attributes":{"NORMAL":7,"POSITION":5,"TANGENT":6,"TEXCOORD_0":8},"indices":9,"material":0,"mode":4}]},{"name":"Wall92","primitives":[{"attributes":{"NORMAL":7,"POSITION":5,"TANGENT":6,"TEXCOORD_0":8},"indices":9,"material":0,"mode":4}]},{"name":"Wall93","primitives":[{"attributes":{"NORMAL":7,"POSITION":5,"TANGENT":6,"TEXCOORD_0":8},"indices":9,"material":0,"mode":4}]},{"name":"Wall94","primitives":[{"attributes":{"NORMAL":7,"POSITION":5,"TANGENT":6,"TEXCOORD_0":8},"indices":9,"material":0,"mode":4}]},{"name":"Harpy","primitives":[{"attributes":{"NORMAL":22,"POSITION":20,"TANGENT":21,"TEXCOORD_0":23},"indices":24,"material":1,"mode":4}]},{"name":"Harpy2","primitives":[{"attributes":{"NORMAL":22,"POSITION":20,"TANGENT":21,"TEXCOORD_0":23},"indices":24,"material":1,"mode":4}]},{"name":"Harpy3","primitives":[{"attributes":{"NORMAL":22,"POSITION":20,"TANGENT":21,"TEXCOORD_0":23},"indices":24,"material":1,"mode":4}]},{"name":"Harpy4","primitives":[{"attributes":{"NORMAL":22,"POSITION":20,"TANGENT":21,"TEXCOORD_0":23},"indices":24,"material":1,"mode":4}]},{"name":"Harpy5","primitives":[{"attributes":{"NORMAL":22,"POSITION":20,"TANGENT":21,"TEXCOORD_0":23},"indices":24,"material":1,"mode":4}]},{"name":"Harpy6","primitives":[{"attributes":{"NORMAL":22,"POSITION":20,"TANGENT":21,"TEXCOORD_0":23},"indices":24,"material":1,"mode":4}]},{"name":"Harpy7","primitives":[{"attributes":{"NORMAL":22,"POSITION":20,"TANGENT":21,"TEXCOORD_0":23},"indices":24,"material":1,"mode":4}]},{"name":"Harpy8","primitives":[{"attributes":{"NORMAL":22,"POSITION":20,"TANGENT":21,"TEXCOORD_0":23},"indices":24,"material":1,"mode":4}]},{"name":"Harpy9","primitives":[{"attributes":{"NORMAL":22,"POSITION":20,"TANGENT":21,"TEXCOORD_0":23},"indices":24,"material":1,"mode":4}]},{"name":"Harpy10","primitives":[{"attributes":{"NORMAL":22,"POSITION":20,"TANGENT":21,"TEXCOORD_0":23},"indices":24,"material":1,"mode":4}]},{"name":"Harpy11","primitives":[{"attributes":{"NORMAL":22,"POSITION":20,"TANGENT":21,"TEXCOORD_0":23},"indices":24,"material":1,"mode":4}]},{"name":"Harpy12","primitives":[{"attributes":{"NORMAL":22,"POSITION":20,"TANGENT":21,"TEXCOORD_0":23},"indices":24,"material":1,"mode":4}]}],"nodes":[{"children":[199,212,213],"name":"TestLevel"},{"mesh":0,"name":"Ground","rotation":[0.0,-0.7071067690849304,0.0,0.7071067690849304],"translation":[-1.0,-0.5,-1.0]},{"mesh":1,"name":"Ground2","rotation":[0.0,-0.7071067690849304,0.0,0.7071067690849304],"translation":[1.0,-0.5,-1.0]},{"mesh":2,"name":"Ground3","rotation":[0.0,-0.7071067690849304,0.0,0.7071067690849304],"translation":[-1.0,-0.5,-3.0]},{"mesh":3,"name":"Ground4","rotation":[0.0,-0.7071067690849304,0.0,0.7071067690849304],"translation":[1.0,-0.5,-3.0]},{"mesh":4,"name":"Ground5","rotation":[0.0,-0.7071067690849304,0.0,0.7071067690849304],"translation":[-1.0,-0.5,-5.0]},{"mesh":5,"name":"Ground6","rotation":[0.0,-0.7071067690849304,0.0,0.7071067690849304],"translation":[1.0,-0.5,-5.0]},{"mesh":6,"name":"Ground7","rotation":[0.0,-0.7071067690849304,0.0,0.7071067690849304],"translation":[-3.0,-0.5,-5.0]},{"mesh":7,"name":"Wall","rotation":[0.0,-0.7071067690849304,0.0,0.7071067690849304],"translation":[-3.0,-0.5,-3.0]},{"mesh":8,"name":"Ground8","rotation":[0.0,0.7071067690849304,0.0,0.7071067690849304],"translation":[3.0,-0.5,-5.0]},{"mesh":9,"name":"Wall2","rotation":[0.0,-0.7071067690849304,0.0,0.7071067690849304],"translation":[3.0,-0.5,-3.0]},{"mesh":10,"name":"Ground9","rotation":[0.0,-0.7071067690849304,0.0,0.7071067690849304],"translation":[-1.0,-0.5,-7.0]},{"mesh":11,"name":"Ground10","rotation":[0.0,-0.7071067690849304,0.0,0.7071067690849304],"translation":[1.0,-0.5,-7.0]},{"mesh":12,"name":"Ground11","rotation":[0.0,-0.7071067690849304,0.0,0.7071067690849304],"translation":[-3.0,-0.5,-7.0]},{"mesh":13,"name":"Ground12","rotation":[0.0,0.7071067690849304,0.0,0.7071067690849304],"translation":[3.0,-0.5,-7.0]},{"mesh":14,"name":"Cliff","rotation":[0.0,1.0,0.0,0.0],"translation":[-9.0,-0.5,-7.0]},{"mesh":15,"name":"Cliff2","rotation":[0.0,1.0,0.0,0.0],"translation":[-9.0,-0.5,-9.0]},{"mesh":16,"name":"Cliff3","rotation":[0.0,1.0,0.0,0.0],"translation":[-9.0,-0.5,-11.0]},{"mesh":17,"name":"Cliff4","rotation":[0.0,1.0,0.0,0.0],"translation":[-9.0,-0.5,-13.0]},{"mesh":18,"name":"Cliff5","rotation":[0.0,1.0,0.0,0.0],"translation":[-9.0,-0.5,-15.0]},{"mesh":19,"name":"Ground13","rotation":[0.0,-0.7071067690849304,0.0,0.7071067690849304],"translation":[-7.0,-0.5,-15.0]},{"mesh":20,"name":"Ground14","translation":[-5.0,-0.5,-15.0]},{"mesh":21,"name":"Wall3","rotation":[0.0,0.7071067690849304,0.0,0.7071067690849304],"translation":[-3.0,-0.5,-15.0]},{"mesh":22,"name":"Wall4","rotation":[0.0,0.7071067690849304,0.0,0.7071067690849304],"translation":[-3.0,-0.5,-13.0]},{"mesh":23,"name":"Wall5","rotation":[0.0,0.7071067690849304,0.0,0.7071067690849304],"translation":[-3.0,-0.5,-11.0]},{"mesh":24,"name":"Wall6","rotation":[0.0,0.7071067690849304,0.0,0.7071067690849304],"translation":[-3.0,-0.5,-9.0]},{"mesh":25,"name":"Ground15","rotation":[0.0,-0.7071067690849304,0.0,0.7071067690849304],"translation":[-7.0,-0.5,-13.0]},{"mesh":26,"name":"Stairs","translation":[-5.0,-0.5,-13.0]},{"mesh":27,"name":"Stairs2","translation":[-5.0,-0.5,-11.0]},{"mesh":28,"name":"Ground16","rotation":[0.0,-0.7071067690849304,0.0,0.7071067690849304],"translation":[-7.0,-0.5,-11.0]},{"mesh":29,"name":"Ground17","rotation":[0.0,-0.7071067690849304,0.0,0.7071067690849304],"translation":[-7.0,-0.5,-9.0]},{"mesh":30,"name":"Stairs3","translation":[-5.0,-0.5,-9.0]},{"mesh":31,"name":"Ground18","rotation":[0.0,-0.7071067690849304,0.0,0.7071067690849304],"translation":[-7.0,-0.5,-7.0]},{"mesh":32,"name":"Wall7","rotation":[0.0,0.7071067690849304,0.0,0.7071067690849304],"translation":[-5.0,-0.5,-7.0]},{"mesh":33,"name":"Wall8","rotation":[0.0,0.7071067690849304,0.0,0.7071067690849304],"translation":[-5.0,-0.5,-5.0]},{"mesh":34,"name":"Ground19","rotation":[0.0,0.7071067690849304,0.0,0.7071067690849304],"translation":[1.0,-0.5,-15.0]},{"mesh":35,"name":"Wall9","rotation":[0.0,0.7071067690849304,0.0,0.7071067690849304],"translation":[3.0,-0.5,-15.0]},{"mesh":36,"name":"Ground20","rotation":[0.0,-0.7071067690849304,0.0,0.7071067690849304],"translation":[5.0,-0.5,-15.0]},{"mesh":37,"name":"Ground21","rotation":[0.0,-0.7071067690849304,0.0,0.7071067690849304],"translation":[7.0,-0.5,-15.0]},{"mesh":38,"name":"Ground22","rotation":[0.0,-0.7071067690849304,0.0,0.7071067690849304],"translation":[9.0,-0.5,-15.0]},{"mesh":39,"name":"Wall10","rotation":[0.0,-0.7071067690849304,0.0,0.7071067690849304],"translation":[9.0,-0.5,-13.0]},{"mesh":40,"name":"Wall11","rotation":[0.0,-0.7071067690849304,0.0,0.7071067690849304],"translation":[9.0,-0.5,-11.0]},{"mesh":41,"name":"Wall12","rotation":[0.0,-0.7071067690849304,0.0,0.7071067690849304],"translation":[5.0,-0.5,-3.0]},{"mesh":42,"name":"Wall13","rotation":[0.0,0.7071067690849304,0.0,0.7071067690849304],"translation":[3.0,-0.5,-9.0]},{"mesh":43,"name":"Wall14","rotation":[0.0,0.7071067690849304,0.0,0.7071067690849304],"translation":[3.0,-0.5,-11.0]},{"mesh":44,"name":"Ground23","rotation":[0.0,-0.7071067690849304,0.0,0.7071067690849304],"translation":[5.0,-0.5,-5.0]},{"mesh":45,"name":"Wall15","rotation":[0.0,0.7071067690849304,0.0,0.7071067690849304],"translation":[5.0,-0.5,-7.0]},{"mesh":46,"name":"Ground24","rotation":[0.0,-0.7071067690849304,0.0,0.7071067690849304],"translation":[11.0,-0.5,-7.0]},{"mesh":47,"name":"Wall16","rotation":[0.0,0.7071067690849304,0.0,0.7071067690849304],"translation":[11.0,-0.5,-9.0]},{"mesh":48,"name":"Wall17","rotation":[0.0,0.7071067690849304,0.0,0.7071067690849304],"translation":[11.0,-0.5,-11.0]},{"mesh":49,"name":"Ground25","rotation":[0.0,-0.7071067690849304,0.0,0.7071067690849304],"translation":[7.0,-0.5,-7.0]},{"mesh":50,"name":"Ground26","rotation":[0.0,-0.7071067690849304,0.0,0.7071067690849304],"translation":[7.0,-0.5,-5.0]},{"mesh":51,"name":"Wall18","rotation":[0.0,0.7071067690849304,0.0,0.7071067690849304],"translation":[5.0,-0.5,-9.0]},{"mesh":52,"name":"Ground27","rotation":[0.0,-0.7071067690849304,0.0,0.7071067690849304],"translation":[7.0,-0.5,-9.0]},{"mesh":53,"name":"Ground28","rotation":[0.0,0.7071067690849304,0.0,0.7071067690849304],"translation":[9.0,-0.5,-9.0]},{"mesh":54,"name":"Ground29","rotation":[0.0,-0.7071067690849304,0.0,0.7071067690849304],"translation":[9.0,-0.5,-7.0]},{"mesh":55,"name":"Wall19","rotation":[0.0,0.7071067690849304,0.0,0.7071067690849304],"translation":[9.0,-0.5,-5.0]},{"mesh":56,"name":"Wall20","rotation":[0.0,-0.7071067690849304,0.0,0.7071067690849304],"translation":[13.0,-0.5,-9.0]},{"mesh":57,"name":"Ground30","rotation":[0.0,-0.7071067690849304,0.0,0.7071067690849304],"translation":[13.0,-0.5,-11.0]},{"mesh":58,"name":"Ground31","rotation":[0.0,-0.7071067690849304,0.0,0.7071067690849304],"translation":[13.0,-0.5,-13.0]},{"mesh":59,"name":"Ground32","rotation":[0.0,-0.7071067690849304,0.0,0.7071067690849304],"translation":[13.0,-0.5,-15.0]},{"mesh":60,"name":"Ground33","rotation":[0.0,-0.7071067690849304,0.0,0.7071067690849304],"translation":[11.0,-0.5,-15.0]},{"mesh":61,"name":"Wall21","rotation":[0.0,0.7071067690849304,0.0,0.7071067690849304],"translation":[11.0,-0.5,-13.0]},{"mesh":62,"name":"Ground34","rotation":[0.0,-0.7071067690849304,0.0,0.7071067690849304],"translation":[7.0,-0.5,-13.0]},{"mesh":63,"name":"Ground35","rotation":[0.0,0.7071067690849304,0.0,0.7071067690849304],"translation":[5.0,-0.5,-13.0]},{"mesh":64,"name":"Ground36","rotation":[0.0,0.7071067690849304,0.0,0.7071067690849304],"translation":[5.0,-0.5,-11.0]},{"mesh":65,"name":"Ground37","rotation":[0.0,-0.7071067690849304,0.0,0.7071067690849304],"translation":[7.0,-0.5,-11.0]},{"mesh":66,"name":"Ground38","rotation":[0.0,-0.7071067690849304,0.0,0.7071067690849304],"translation":[11.0,-0.5,-17.0]},{"mesh":67,"name":"Wall22","rotation":[0.0,0.7071067690849304,0.0,0.7071067690849304],"translation":[9.0,-0.5,-17.0]},{"mesh":68,"name":"Wall23","rotation":[0.0,0.7071067690849304,0.0,0.7071067690849304],"translation":[1.0,-0.5,-17.0]},{"mesh":69,"name":"Ground39","rotation":[0.0,0.7071067690849304,0.0,0.7071067690849304],"translation":[3.0,-0.5,-13.0]},{"mesh":70,"name":"Ground40","rotation":[0.0,0.7071067690849304,0.0,0.7071067690849304],"translation":[-1.0,-0.5,-15.0]},{"mesh":71,"name":"Wall24","rotation":[0.0,-0.7071067690849304,0.0,0.7071067690849304],"translation":[-7.0,-0.5,-19.0]},{"mesh":72,"name":"Ground41","rotation":[0.0,-0.7071067690849304,0.0,0.7071067690849304],"translation":[-5.0,-0.5,-19.0]},{"mesh":73,"name":"Wall25","rotation":[0.0,0.7071067690849304,0.0,0.7071067690849304],"translation":[-3.0,-0.5,-19.0]},{"mesh":74,"name":"Ground42","rotation":[0.0,-0.7071067690849304,0.0,0.7071067690849304],"translation":[-1.0,-0.5,-19.0]},{"mesh":75,"name":"Ground43","rotation":[0.0,-0.7071067690849304,0.0,0.7071067690849304],"translation":[-1.0,-0.5,-17.0]},{"mesh":76,"name":"Ground44","rotation":[0.0,0.7071067690849304,0.0,0.7071067690849304],"translation":[-3.0,-0.5,-17.0]},{"mesh":77,"name":"Ground45","rotation":[0.0,-0.7071067690849304,0.0,0.7071067690849304],"translation":[-5.0,-0.5,-17.0]},{"mesh":78,"name":"Wall26","rotation":[0.0,-0.7071067690849304,0.0,0.7071067690849304],"translation":[-7.0,-0.5,-17.0]},{"mesh":79,"name":"Ground46","rotation":[0.0,0.7071067690849304,0.0,0.7071067690849304],"translation":[1.0,-0.5,-9.0]},{"mesh":80,"name":"Ground47","rotation":[0.0,-0.7071067690849304,0.0,0.7071067690849304],"translation":[1.0,-0.5,-11.0]},{"mesh":81,"name":"Ground48","rotation":[0.0,-0.7071067690849304,0.0,0.7071067690849304],"translation":[1.0,-0.5,-13.0]},{"mesh":82,"name":"Ground49","rotation":[0.0,-0.7071067690849304,0.0,0.7071067690849304],"translation":[-1.0,-0.5,-13.0]},{"mesh":83,"name":"Ground50","rotation":[0.0,-0.7071067690849304,0.0,0.7071067690849304],"translation":[-1.0,-0.5,-11.0]},{"mesh":84,"name":"Wall27","rotation":[0.0,0.7071067690849304,0.0,0.7071067690849304],"translation":[-1.0,-0.5,-9.0]},{"mesh":85,"name":"Ground51","rotation":[0.0,0.7071067690849304,0.0,0.7071067690849304],"translation":[1.0,-0.5,-19.0]},{"mesh":86,"name":"Ground52","rotation":[0.0,-0.7071067690849304,0.0,0.7071067690849304],"translation":[3.0,-0.5,-19.0]},{"mesh":87,"name":"Ground53","rotation":[0.0,-0.7071067690849304,0.0,0.7071067690849304],"translation":[5.0,-0.5,-19.0]},{"mesh":88,"name":"Wall28","rotation":[0.0,0.7071067690849304,0.0,0.7071067690849304],"translation":[7.0,-0.5,-19.0]},{"mesh":89,"name":"Ground54","rotation":[0.0,0.7071067690849304,0.0,0.7071067690849304],"translation":[9.0,-0.5,-19.0]},{"mesh":90,"name":"Ground55","rotation":[0.0,-0.7071067690849304,0.0,0.7071067690849304],"translation":[1.0,-0.5,-21.0]},{"mesh":91,"name":"Wall29","rotation":[0.0,0.7071067690849304,0.0,0.7071067690849304],"translation":[-1.0,-0.5,-21.0]},{"mesh":92,"name":"Wall30","rotation":[0.0,-0.7071067690849304,0.0,0.7071067690849304],"translation":[7.0,-0.5,-3.0]},{"mesh":93,"name":"Wall31","rotation":[0.0,-0.7071067690849304,0.0,0.7071067690849304],"translation":[9.0,-0.5,-3.0]},{"mesh":94,"name":"Ground56","rotation":[0.0,0.7071067690849304,0.0,0.7071067690849304],"translation":[11.0,-0.5,-5.0]},{"mesh":95,"name":"Ground57","rotation":[0.0,0.7071067690849304,0.0,0.7071067690849304],"translation":[13.0,-0.5,-7.0]},{"mesh":96,"name":"Wall32","rotation":[0.0,-0.7071067690849304,0.0,0.7071067690849304],"translation":[11.0,-0.5,-3.0]},{"mesh":97,"name":"Ground58","rotation":[0.0,0.7071067690849304,0.0,0.7071067690849304],"translation":[13.0,-0.5,-5.0]},{"mesh":98,"name":"Wall33","rotation":[0.0,-0.7071067690849304,0.0,0.7071067690849304],"translation":[-5.0,-0.5,-3.0]},{"mesh":99,"name":"Wall34","rotation":[0.0,-0.7071067690849304,0.0,0.7071067690849304],"translation":[-7.0,-0.5,-3.0]},{"mesh":100,"name":"Ground59","rotation":[0.0,0.7071067690849304,0.0,0.7071067690849304],"translation":[-7.0,-0.5,-5.0]},{"mesh":101,"name":"Cliff6","rotation":[0.0,1.0,0.0,0.0],"translation":[-9.0,-0.5,-5.0]},{"mesh":102,"name":"Wall35","rotation":[0.0,1.0,0.0,0.0],"translation":[-11.0,-0.5,-5.0]},{"mesh":103,"name":"Wall36","rotation":[0.0,1.0,0.0,0.0],"translation":[-11.0,-0.5,-7.0]},{"mesh":104,"name":"Wall37","rotation":[0.0,1.0,0.0,0.0],"translation":[-11.0,-0.5,-9.0]},{"mesh":105,"name":"Wall38","rotation":[0.0,1.0,0.0,0.0],"translation":[-11.0,-0.5,-11.0]},{"mesh":106,"name":"Wall39","rotation":[0.0,1.0,0.0,0.0],"translation":[-11.0,-0.5,-13.0]},{"mesh":107,"name":"Wall40","rotation":[0.0,1.0,0.0,0.0],"translation":[-11.0,-0.5,-15.0]},{"mesh":108,"name":"Wall41","rotation":[0.0,1.0,0.0,0.0],"translation":[-11.0,-0.5,-17.0]},{"mesh":109,"name":"Wall42","rotation":[0.0,1.0,0.0,0.0],"translation":[-11.0,0.5,-5.0]},{"mesh":110,"name":"Cliff7","rotation":[0.0,1.0,0.0,0.0],"translation":[-11.0,0.5,-7.0]},{"mesh":111,"name":"Cliff8","rotation":[0.0,1.0,0.0,0.0],"translation":[-11.0,0.5,-9.0]},{"mesh":112,"name":"Cliff9","rotation":[0.0,1.0,0.0,0.0],"translation":[-11.0,0.5,-11.0]},{"mesh":113,"name":"Cliff10","rotation":[0.0,1.0,0.0,0.0],"translation":[-11.0,0.5,-13.0]},{"mesh":114,"name":"Cliff11","rotation":[0.0,1.0,0.0,0.0],"translation":[-11.0,0.5,-15.0]},{"mesh":115,"name":"Cliff12","rotation":[0.0,1.0,0.0,0.0],"translation":[-11.0,0.5,-17.0]},{"mesh":116,"name":"Wall43","rotation":[0.0,1.0,0.0,0.0],"translation":[-9.0,-0.5,-17.0]},{"mesh":117,"name":"Wall44","rotation":[0.0,1.0,0.0,0.0],"translation":[-13.0,1.5,-17.0]},{"mesh":118,"name":"Wall45","rotation":[0.0,1.0,0.0,0.0],"translation":[-13.0,1.5,-15.0]},{"mesh":119,"name":"Wall46","rotation":[0.0,1.0,0.0,0.0],"translation":[-13.0,1.5,-13.0]},{"mesh":120,"name":"Wall47","rotation":[0.0,1.0,0.0,0.0],"translation":[-13.0,1.5,-11.0]},{"mesh":121,"name":"Wall48","rotation":[0.0,1.0,0.0,0.0],"translation":[-13.0,1.5,-9.0]},{"mesh":122,"name":"Wall49","rotation":[0.0,1.0,0.0,0.0],"translation":[-13.0,1.5,-7.0]},{"mesh":123,"name":"Wall50","rotation":[0.0,1.0,0.0,0.0],"translation":[-13.0,1.5,-5.0]},{"mesh":124,"name":"Wall51","rotation":[0.0,1.0,0.0,0.0],"translation":[-13.0,1.5,-3.0]},{"mesh":125,"name":"Cliff13","rotation":[0.0,1.0,0.0,0.0],"translation":[-11.0,1.5,-3.0]},{"mesh":126,"name":"Cliff14","rotation":[0.0,1.0,0.0,0.0],"translation":[-9.0,0.5,-3.0]},{"mesh":127,"name":"Cliff15","rotation":[0.0,-0.7071067690849304,0.0,0.7071067690849304],"translation":[-9.0,0.5,-5.0]},{"mesh":128,"name":"Ground60","rotation":[0.0,0.7071067690849304,0.0,0.7071067690849304],"translation":[-3.0,-0.5,-1.0]},{"mesh":129,"name":"Ground61","rotation":[0.0,0.7071067690849304,0.0,0.7071067690849304],"translation":[-5.0,-0.5,-1.0]},{"mesh":130,"name":"Ground62","rotation":[0.0,0.7071067690849304,0.0,0.7071067690849304],"translation":[-7.0,-0.5,-1.0]},{"mesh":131,"name":"Wall52","rotation":[0.0,0.7071067690849304,0.0,0.7071067690849304],"translation":[-9.0,-0.5,-1.0]},{"mesh":132,"name":"Wall53","rotation":[0.0,0.7071067690849304,0.0,0.7071067690849304],"translation":[-9.0,0.5,-1.0]},{"mesh":133,"name":"Wall54","rotation":[0.0,0.7071067690849304,0.0,0.7071067690849304],"translation":[-9.0,1.5,-1.0]},{"mesh":134,"name":"Wall55","rotation":[0.0,0.7071067690849304,0.0,0.7071067690849304],"translation":[-9.0,2.5,-1.0]},{"mesh":135,"name":"Wall56","rotation":[0.0,0.7071067690849304,0.0,0.7071067690849304],"translation":[-11.0,2.5,-1.0]},{"mesh":136,"name":"Wall57","rotation":[0.0,0.7071067690849304,0.0,0.7071067690849304],"translation":[-13.0,2.5,-1.0]},{"mesh":137,"name":"Wall58","rotation":[0.0,0.7071067690849304,0.0,0.7071067690849304],"translation":[-15.0,2.5,-1.0]},{"mesh":138,"name":"Wall59","rotation":[0.0,0.7071067690849304,0.0,0.7071067690849304],"translation":[-15.0,2.5,-3.0]},{"mesh":139,"name":"Wall60","rotation":[0.0,0.7071067690849304,0.0,0.7071067690849304],"translation":[-15.0,2.5,-5.0]},{"mesh":140,"name":"Wall61","rotation":[0.0,0.7071067690849304,0.0,0.7071067690849304],"translation":[-15.0,2.5,-7.0]},{"mesh":141,"name":"Wall62","rotation":[0.0,0.7071067690849304,0.0,0.7071067690849304],"translation":[-15.0,2.5,-9.0]},{"mesh":142,"name":"Wall63","translation":[-15.0,2.5,-11.0]},{"mesh":143,"name":"Wall64","translation":[-15.0,2.5,-13.0]},{"mesh":144,"name":"Wall65","translation":[-15.0,2.5,-15.0]},{"mesh":145,"name":"Wall66","rotation":[0.0,0.7071067690849304,0.0,0.7071067690849304],"translation":[-15.0,2.5,-17.0]},{"mesh":146,"name":"Wall67","rotation":[0.0,0.7071067690849304,0.0,0.7071067690849304],"translation":[15.0,-0.5,-11.0]},{"mesh":147,"name":"Wall68","rotation":[0.0,0.7071067690849304,0.0,0.7071067690849304],"translation":[15.0,-0.5,-13.0]},{"mesh":148,"name":"Wall69","rotation":[0.0,0.7071067690849304,0.0,0.7071067690849304],"translation":[15.0,-0.5,-15.0]},{"mesh":149,"name":"Wall70","rotation":[0.0,0.7071067690849304,0.0,0.7071067690849304],"translation":[15.0,-0.5,-9.0]},{"mesh":150,"name":"Wall71","rotation":[0.0,0.7071067690849304,0.0,0.7071067690849304],"translation":[3.0,-0.5,-1.0]},{"mesh":151,"name":"Wall72","rotation":[0.0,0.7071067690849304,0.0,0.7071067690849304],"translation":[3.0,-0.5,-21.0]},{"mesh":152,"name":"Wall73","rotation":[0.0,0.7071067690849304,0.0,0.7071067690849304],"translation":[5.0,-0.5,-23.0]},{"mesh":153,"name":"Ground63","rotation":[0.0,0.7071067690849304,0.0,0.7071067690849304],"translation":[13.0,-0.5,-17.0]},{"mesh":154,"name":"Ground64","rotation":[0.0,0.7071067690849304,0.0,0.7071067690849304],"translation":[11.0,-0.5,-19.0]},{"mesh":155,"name":"Ground65","rotation":[0.0,0.7071067690849304,0.0,0.7071067690849304],"translation":[11.0,-0.5,-21.0]},{"mesh":156,"name":"Ground66","rotation":[0.0,0.7071067690849304,0.0,0.7071067690849304],"translation":[9.0,-0.5,-21.0]},{"mesh":157,"name":"Ground67","rotation":[0.0,0.7071067690849304,0.0,0.7071067690849304],"translation":[7.0,-0.5,-21.0]},{"mesh":158,"name":"Ground68","rotation":[0.0,0.7071067690849304,0.0,0.7071067690849304],"translation":[5.0,-0.5,-21.0]},{"mesh":159,"name":"Wall74","rotation":[0.0,0.7071067690849304,0.0,0.7071067690849304],"translation":[3.0,-0.5,-23.0]},{"mesh":160,"name":"Wall75","rotation":[0.0,0.7071067690849304,0.0,0.7071067690849304],"translation":[7.0,-0.5,-17.0]},{"mesh":161,"name":"Ground69","rotation":[0.0,0.7071067690849304,0.0,0.7071067690849304],"translation":[5.0,-0.5,-17.0]},{"mesh":162,"name":"Wall76","rotation":[0.0,0.7071067690849304,0.0,0.7071067690849304],"translation":[3.0,-0.5,-17.0]},{"mesh":163,"name":"Wall77","rotation":[0.0,0.7071067690849304,0.0,0.7071067690849304],"translation":[7.0,-0.5,-23.0]},{"mesh":164,"name":"Wall78","rotation":[0.0,0.7071067690849304,0.0,0.7071067690849304],"translation":[9.0,-0.5,-23.0]},{"mesh":165,"name":"Wall79","rotation":[0.0,0.7071067690849304,0.0,0.7071067690849304],"translation":[11.0,-0.5,-23.0]},{"mesh":166,"name":"Wall80","rotation":[0.0,0.7071067690849304,0.0,0.7071067690849304],"translation":[13.0,-0.5,-21.0]},{"mesh":167,"name":"Wall81","rotation":[0.0,0.7071067690849304,0.0,0.7071067690849304],"translation":[13.0,-0.5,-19.0]},{"mesh":168,"name":"Wall82","rotation":[0.0,0.7071067690849304,0.0,0.7071067690849304],"translation":[15.0,-0.5,-19.0]},{"mesh":169,"name":"Wall83","rotation":[0.0,0.7071067690849304,0.0,0.7071067690849304],"translation":[15.0,-0.5,-17.0]},{"mesh":170,"name":"Ground70","rotation":[0.0,-0.7071067690849304,0.0,0.7071067690849304],"translation":[1.0,-0.5,-23.0]},{"mesh":171,"name":"Wall84","rotation":[0.0,-0.7071067690849304,0.0,0.7071067690849304],"translation":[-7.0,-0.5,-21.0]},{"mesh":172,"name":"Wall85","rotation":[0.0,-0.7071067690849304,0.0,0.7071067690849304],"translation":[-5.0,-0.5,-23.0]},{"mesh":173,"name":"Wall86","rotation":[0.0,-0.7071067690849304,0.0,0.7071067690849304],"translation":[-5.0,-0.5,-21.0]},{"mesh":174,"name":"Wall87","rotation":[0.0,0.7071067690849304,0.0,0.7071067690849304],"translation":[-1.0,-0.5,-23.0]},{"mesh":175,"name":"Ground71","rotation":[0.0,-0.7071067690849304,0.0,0.7071067690849304],"translation":[-3.0,-0.5,-23.0]},{"mesh":176,"name":"Ground72","rotation":[0.0,-0.7071067690849304,0.0,0.7071067690849304],"translation":[-3.0,-0.5,-21.0]},{"mesh":177,"name":"Wall88","translation":[-5.0,0.5,-7.0]},{"mesh":178,"name":"Wall89","translation":[-5.0,0.5,-5.0]},{"mesh":179,"name":"Ground73","translation":[-3.0,0.5,-9.0]},{"mesh":180,"name":"Ground74","translation":[-3.0,0.5,-11.0]},{"mesh":181,"name":"Ground75","translation":[-3.0,0.5,-13.0]},{"mesh":182,"name":"Ground76","translation":[-3.0,0.5,-15.0]},{"mesh":183,"name":"Ground77","translation":[-1.0,0.5,-9.0]},{"mesh":184,"name":"Ground78","translation":[-11.0,1.5,-5.0]},{"mesh":185,"name":"Ground79","translation":[-13.0,2.5,-3.0]},{"mesh":186,"name":"Ground80","translation":[-13.0,2.5,-5.0]},{"mesh":187,"name":"Ground81","translation":[-13.0,2.5,-7.0]},{"mesh":188,"name":"Ground82","translation":[-13.0,2.5,-9.0]},{"mesh":189,"name":"Ground83","translation":[-13.0,2.5,-11.0]},{"mesh":190,"name":"Ground84","translation":[-13.0,2.5,-15.0]},{"mesh":191,"name":"Ground85","translation":[-13.0,2.5,-17.0]},{"mesh":192,"name":"Ground86","translation":[-13.0,2.5,-13.0]},{"mesh":193,"name":"Wall90","rotation":[0.0,0.7071067690849304,0.0,0.7071067690849304],"translation":[13.0,-0.5,-3.0]},{"mesh":194,"name":"Wall91","rotation":[0.0,0.7071067690849304,0.0,0.7071067690849304],"translation":[15.0,-0.5,-3.0]},{"mesh":195,"name":"Wall92","rotation":[0.0,0.7071067690849304,0.0,0.7071067690849304],"translation":[15.0,-0.5,-5.0]},{"mesh":196,"name":"Wall93","rotation":[0.0,0.7071067690849304,0.0,0.7071067690849304],"translation":[15.0,-0.5,-7.0]},{"mesh":197,"name":"Wall94","rotation":[0.0,0.7071067690849304,0.0,0.7071067690849304],"translation":[13.0,-0.5,-23.0]},{"children":[1,2,3,4,5,6,7,8,9,10,11,12,13,14,15,16,17,18,19,20,21,22,23,24,25,26,27,28,29,30,31,32,33,34,35,36,37,38,39,40,41,42,43,44,45,46,47,48,49,50,51,52,53,54,55,56,57,58,59,60,61,62,63,64,65,66,67,68,69,70,71,72,73,74,75,76,77,78,79,80,81,82,83,84,85,86,87,88,89,90,91,92,93,94,95,96,97,98,99,100,101,102,103,104,105,106,107,108,109,110,111,112,113,114,115,116,117,118,119,120,121,122,123,124,125,126,127,128,129,130,131,132,133,134,135,136,137,138,139,140,141,142,143,144,145,146,147,148,149,150,151,152,153,154,155,156,157,158,159,160,161,162,163,164,165,166,167,168,169,170,171,172,173,174,175,176,177,178,179,180,181,182,183,184,185,186,187,188,189,190,191,192,193,194,195,196,197,198],"name":"GridMap","translation":[0.0,-1.0,0.0]},{"mesh":198,"name":"Harpy","rotation":[0.0,0.7071067690849304,0.0,0.7071067690849304],"translation":[5.0,-0.3999999761581421,-5.0]},{"mesh":199,"name":"Harpy2","rotation":[0.0,0.7071067690849304,0.0,0.7071067690849304],"translation":[1.0,-0.3999999761581421,-9.0]},{"mesh":200,"name":"Harpy3","rotation":[0.0,0.7071067690849304,0.0,0.7071067690849304],"translation":[-7.0,-0.3999999761581421,-9.0]},{"mesh":201,"name":"Harpy4","rotation":[0.0,0.7071067690849304,0.0,0.7071067690849304],"translation":[-5.0,-0.3999999761581421,-17.0]},{"mesh":202,"name":"Harpy5","rotation":[0.0,0.7071067690849304,0.0,0.7071067690849304],"translation":[-1.0,-0.3999999761581421,-17.0]},{"mesh":203,"name":"Harpy6","rotation":[0.0,0.7071067690849304,0.0,0.7071067690849304],"translation":[5.0,-0.3999999761581421,-17.0]},{"mesh":204,"name":"Harpy7","rotation":[0.0,0.7071067690849304,0.0,0.7071067690849304],"translation":[11.0,-0.3999999761581421,-15.0]},{"mesh":205,"name":"Harpy8","rotation":[0.0,0.7071067690849304,0.0,0.7071067690849304],"translation":[11.0,-0.3999999761581421,-17.0]},{"mesh":206,"name":"Harpy9","rotation":[0.0,0.7071067690849304,0.0,0.7071067690849304],"translation":[7.0,-0.3999999761581421,-21.0]},{"mesh":207,"name":"Harpy10","rotation":[0.0,0.7071067690849304,0.0,0.7071067690849304],"translation":[9.0,-0.3999999761581421,-7.0]},{"mesh":208,"name":"Harpy11","rotation":[0.0,0.7071067690849304,0.0,0.7071067690849304],"translation":[9.0,-0.3999999761581421,-9.0]},{"mesh":209,"name":"Harpy12","rotation":[0.0,0.7071067690849304,0.0,0.7071067690849304],"translation":[3.0,-0.3999999761581421,-13.0]},{"children":[200,201,202,203,204,205,206,207,208,209,210,211],"name":"ItemMap","translation":[0.0,-0.8999999761581421,0.0]},{"extensions":{"KHR_lights_punctual":{"light":0}},"name":"DirectionalLight3D","rotation":[-0.4330127239227295,0.2500000298023224,-0.4330126941204071,0.75]}],"samplers":[{"magFilter":9729,"minFilter":9987,"wrapS":10497,"wrapT":10497}],"scene":0,"scenes":[{"nodes":[0]}],"textures":[{"sampler":0,"source":0}]}